<svg xmlns="http://www.w3.org/2000/svg" viewBox="0 0 100 100" width="100" height="100">
  <rect width="100" height="100" fill="#0B0D0E"/>
  <g stroke="#C9A961" stroke-width="2" stroke-linecap="round" opacity="0.9">
    <line x1="50" y1="50" x2="92" y2="50"/>
    <line x1="50" y1="50" x2="89.4" y2="60.9"/>
    <line x1="50" y1="50" x2="81.4" y2="71"/>
    <line x1="50" y1="50" x2="71" y2="81.4"/>
    <line x1="50" y1="50" x2="60.9" y2="89.4"/>
    <line x1="50" y1="50" x2="50" y2="92"/>
    <line x1="50" y1="50" x2="39.1" y2="89.4"/>
    <line x1="50" y1="50" x2="29" y2="81.4"/>
    <line x1="50" y1="50" x2="18.6" y2="71"/>
    <line x1="50" y1="50" x2="10.6" y2="60.9"/>
    <line x1="50" y1="50" x2="8" y2="50"/>
    <line x1="50" y1="50" x2="10.6" y2="39.1"/>
    <line x1="50" y1="50" x2="18.6" y2="29"/>
    <line x1="50" y1="50" x2="29" y2="18.6"/>
    <line x1="50" y1="50" x2="39.1" y2="10.6"/>
    <line x1="50" y1="50" x2="50" y2="8"/>
    <line x1="50" y1="50" x2="60.9" y2="10.6"/>
    <line x1="50" y1="50" x2="71" y2="18.6"/>
    <line x1="50" y1="50" x2="81.4" y2="29"/>
    <line x1="50" y1="50" x2="89.4" y2="39.1"/>
  </g>
  <circle cx="50" cy="50" r="14" fill="#0B0D0E"/>
  <text x="50" y="56" text-anchor="middle" font-size="18" font-weight="600" fill="#C9A961" font-family="-apple-system,BlinkMacSystemFont,'Segoe UI',Inter,sans-serif">d</text>
</svg>
